# xmcd CD database file
#
# Track frame offsets:
#	150
#	23389
#	49082
#	60326
#	79549
#	107235
#	128126
#	149906
#	164619
#	223123
#	250352
#
# Disc length: 3763 seconds
#
# Revision: 0
# Processed by: cddbd v1.5.1PL0 Copyright (c) Steve Scherf et al.
# Submitted via: CDex 1.51
#
DISCID=9b0eb10b
DTITLE=Buddy Catlett - Here Comes
DYEAR=2004
DGENRE=Jazz
TTITLE0=Night Mist Blues
TTITLE1=Here's That Rainy Day
TTITLE2=On The Brink
TTITLE3=Darn That Dream
TTITLE4=Blackbird
TTITLE5=Is It True (About Dixie?)
TTITLE6=Blues For Buddy
TTITLE7=Long Tall Dexter
TTITLE8=Blue Monk - Mysterioso - Round Midnight
TTITLE9=Without A Song
TTITLE10=Yesterdays
EXTD=YEAR: 2004
EXTT0=
EXTT1=
EXTT2=
EXTT3=
EXTT4=
EXTT5=
EXTT6=
EXTT7=
EXTT8=
EXTT9=
EXTT10=
PLAYORDER=
